<svg id="Capa_1" enable-background="new 0 0 512 512" height="512" viewBox="0 0 512 512" width="512" xmlns="http://www.w3.org/2000/svg"><g><path d="m271.452 103.018-15.453 13.632-15.453-13.632v-97.867c0-2.845 2.306-5.151 5.151-5.151h20.604c2.845 0 5.151 2.306 5.151 5.151z" fill="#fc8d94"/><path d="m146.8 324.651v-113.464l193.674-20.521 24.724 123.879-105.334 92.183z" fill="#fff3d2"/><path d="m365.198 211.187v103.358s-20.604 1.514-30.905-7.654v-95.704l18.327-9.183z" fill="#ffe6ae"/><path d="m344.595 402.801c0 60.307-45.991 101.958-88.038 107.569-5.246 0-10.963 1.261-16.011.545-52.989-7.507-93.745-53.053-93.745-108.114v-78.15c16.431-3.544 33.862-2.977 50.201 1.164 15.187 3.846 29.573 10.58 44.133 16.503 12.353 5.025 84.125-6.432 100.935-15.433z" fill="#ffe07d"/><path d="m365.198 316.06v86.741c0 60.307-48.892 109.199-109.199 109.199-5.244 0-10.405-.371-15.453-1.092 52.993-7.5 93.746-53.044 93.746-108.107v-60.245c10.303-17.833 18.406-22.048 30.906-26.496z" fill="#ffd064"/><path d="m348.052 320.114c-8.092 11.003-13.759 22.443-13.759 22.443-16.81 9.001-36.292 13.103-55.125 10.826-13.207-1.597-25.682-6.037-38.034-11.064 8.654-4.028 16.916-9.828 24.086-14.093 14.103-8.375 28.608-16.771 44.864-20.089 7.966-1.624 16.118-1.962 24.21-1.25z" fill="#ffc269"/><path d="m365.198 314.545v1.514c-8.097 11.002-18.811 20.016-30.905 26.496v-35.665c9.612.845 19.141 3.173 28.175 6.583.917.341 1.824.701 2.73 1.072z" fill="#ffa95f"/><path d="m339.437 211.187h-67.986l-15.453-9.183-15.453 9.183h-95.8c-6.196 0-11.435-4.587-12.254-10.728l-2.69-20.177 126.197-21.742 98.382 21.742-2.69 20.177c-.818 6.141-6.057 10.728-12.253 10.728z" fill="#ffe6ae"/><path d="m382.196 180.282-2.689 20.181c-.824 6.14-6.057 10.724-12.259 10.724h-30.905c6.202 0 11.435-4.584 12.259-10.724l2.689-20.181 20.856-16.703z" fill="#ffd385"/><path d="m315.749 133.924-7.954-23.861c-1.402-4.207-5.339-7.044-9.773-7.044h-112.892c-4.434 0-8.371 2.837-9.773 7.044l-7.954 23.861 96.397 29.655z" fill="#ead1ff"/><path d="m344.595 133.924-13.392 15.482-17.513-15.482-7.953-23.859c-1.401-4.213-5.336-7.046-9.776-7.046h30.905c4.44 0 8.375 2.833 9.776 7.046z" fill="#d6bdef"/><path d="m136.266 133.924c-7.121 0-13.32 4.866-15.011 11.783l-5.335 21.827c-1.586 6.489 3.327 12.748 10.007 12.748h114.619l15.453 10.384 15.453-10.384h85.774c6.68 0 11.593-6.259 10.007-12.748l-5.335-21.827c-1.691-6.917-7.89-11.783-15.011-11.783z" fill="#c3aff0"/><path d="m386.07 180.282h-30.905c6.686 0 11.59-6.264 10.013-12.743l-5.336-21.83c-1.7-6.923-7.891-11.785-15.01-11.785h30.905c7.119 0 13.31 4.862 15.01 11.785l5.336 21.83c1.576 6.479-3.328 12.743-10.013 12.743z" fill="#ad96ed"/><path d="m266.301 283.3h-20.604c-2.845 0-5.151-2.306-5.151-5.151v-66.962l15.453-9.183 15.453 9.183v66.962c0 2.845-2.306 5.151-5.151 5.151z" fill="#ffe6ae"/><path d="m240.546 180.282h30.905v30.905h-30.905z" fill="#ffd385"/><path d="m330.172 391.984c-5.681 0-10.302-4.622-10.302-10.302s4.621-10.302 10.302-10.302c1.42 0 2.774.289 4.006.811 3.696 1.566 3.751 17.338.116 18.932-1.262.553-2.657.861-4.122.861z" fill="#fff3d2"/><path d="m340.474 381.682c0 4.213-2.545 7.85-6.181 9.436v-18.873c3.636 1.587 6.181 5.224 6.181 9.437z" fill="#ffe6ae"/><g fill="#6f6571"><path d="m204.49 439.887c8.534 0 15.453-6.918 15.453-15.453 0-8.534-6.918-15.453-15.453-15.453-8.534 0-15.453 6.918-15.453 15.453 0 8.535 6.919 15.453 15.453 15.453z"/><path d="m255.999 481.095c8.534 0 15.453-6.918 15.453-15.453 0-8.534-6.918-15.453-15.453-15.453-8.534 0-15.453 6.918-15.453 15.453 0 8.534 6.919 15.453 15.453 15.453z"/><path d="m307.508 439.887c-8.534 0-15.453-6.918-15.453-15.453 0-8.534 6.918-15.453 15.453-15.453 8.534 0 15.453 6.918 15.453 15.453 0 8.535-6.919 15.453-15.453 15.453z"/></g><path d="m181.826 391.984c-5.681 0-10.302-4.622-10.302-10.302s4.621-10.302 10.302-10.302 10.302 4.622 10.302 10.302-4.621 10.302-10.302 10.302z" fill="#fff3d2"/><path d="m255.999 424.435c-5.681 0-10.302-4.622-10.302-10.302s4.621-10.302 10.302-10.302 10.302 4.622 10.302 10.302-4.621 10.302-10.302 10.302z" fill="#fff3d2"/></g></svg>